<?xml version="1.0" encoding="UTF-8" standalone="no"?>
<!DOCTYPE svg PUBLIC "-//W3C//DTD SVG 1.1//EN"
 "http://www.w3.org/Graphics/SVG/1.1/DTD/svg11.dtd">
<!-- Generated by graphviz version 13.0.1 (20250615.1724)
 -->
<!-- Pages: 1 -->
<svg width="260pt" height="206pt"
 viewBox="0.00 0.00 260.00 206.00" xmlns="http://www.w3.org/2000/svg" xmlns:xlink="http://www.w3.org/1999/xlink">
<g id="graph0" class="graph" transform="scale(1 1) rotate(0) translate(4 202)">
<polygon fill="white" stroke="none" points="-4,4 -4,-202 256,-202 256,4 -4,4"/>
<!-- i1 -->
<g id="node1" class="node">
<title>i1</title>
<ellipse fill="white" stroke="black" cx="18" cy="-153" rx="18" ry="18"/>
</g>
<!-- h1_1 -->
<g id="node4" class="node">
<title>h1_1</title>
<ellipse fill="white" stroke="black" cx="90" cy="-72" rx="18" ry="18"/>
</g>
<!-- i1&#45;&gt;h1_1 -->
<g id="edge1" class="edge">
<title>i1&#45;&gt;h1_1</title>
<path fill="none" stroke="gray" stroke-width="0.5" d="M30.56,-139.62C41.4,-127.08 57.8,-108.11 70.47,-93.45"/>
<polygon fill="gray" stroke="gray" stroke-width="0.5" points="73.04,-95.82 76.93,-85.97 67.74,-91.25 73.04,-95.82"/>
</g>
<!-- h1_2 -->
<g id="node5" class="node">
<title>h1_2</title>
<ellipse fill="white" stroke="black" cx="90" cy="-18" rx="18" ry="18"/>
</g>
<!-- i1&#45;&gt;h1_2 -->
<g id="edge2" class="edge">
<title>i1&#45;&gt;h1_2</title>
<path fill="none" stroke="gray" stroke-width="0.5" d="M28.92,-138.09C31.35,-134.22 33.86,-130.01 36,-126 54.54,-91.24 53.46,-79.76 72,-45 72.53,-44 73.09,-42.98 73.67,-41.96"/>
<polygon fill="gray" stroke="gray" stroke-width="0.5" points="76.56,-43.94 78.69,-33.56 70.56,-40.35 76.56,-43.94"/>
</g>
<!-- h1_3 -->
<g id="node6" class="node">
<title>h1_3</title>
<ellipse fill="white" stroke="black" cx="90" cy="-180" rx="18" ry="18"/>
</g>
<!-- i1&#45;&gt;h1_3 -->
<g id="edge3" class="edge">
<title>i1&#45;&gt;h1_3</title>
<path fill="none" stroke="gray" stroke-width="0.5" d="M35.24,-159.26C43.45,-162.43 53.63,-166.36 62.91,-169.94"/>
<polygon fill="gray" stroke="gray" stroke-width="0.5" points="61.56,-173.17 72.15,-173.5 64.08,-166.64 61.56,-173.17"/>
</g>
<!-- h1_4 -->
<g id="node7" class="node">
<title>h1_4</title>
<ellipse fill="white" stroke="black" cx="90" cy="-126" rx="18" ry="18"/>
</g>
<!-- i1&#45;&gt;h1_4 -->
<g id="edge4" class="edge">
<title>i1&#45;&gt;h1_4</title>
<path fill="none" stroke="gray" stroke-width="0.5" d="M35.24,-146.74C43.45,-143.57 53.63,-139.64 62.91,-136.06"/>
<polygon fill="gray" stroke="gray" stroke-width="0.5" points="64.08,-139.36 72.15,-132.5 61.56,-132.83 64.08,-139.36"/>
</g>
<!-- i2 -->
<g id="node2" class="node">
<title>i2</title>
<ellipse fill="white" stroke="black" cx="18" cy="-99" rx="18" ry="18"/>
</g>
<!-- i2&#45;&gt;h1_1 -->
<g id="edge5" class="edge">
<title>i2&#45;&gt;h1_1</title>
<path fill="none" stroke="gray" stroke-width="0.5" d="M35.24,-92.74C43.45,-89.57 53.63,-85.64 62.91,-82.06"/>
<polygon fill="gray" stroke="gray" stroke-width="0.5" points="64.08,-85.36 72.15,-78.5 61.56,-78.83 64.08,-85.36"/>
</g>
<!-- i2&#45;&gt;h1_2 -->
<g id="edge6" class="edge">
<title>i2&#45;&gt;h1_2</title>
<path fill="none" stroke="gray" stroke-width="0.5" d="M30.56,-85.62C41.4,-73.08 57.8,-54.11 70.47,-39.45"/>
<polygon fill="gray" stroke="gray" stroke-width="0.5" points="73.04,-41.82 76.93,-31.97 67.74,-37.25 73.04,-41.82"/>
</g>
<!-- i2&#45;&gt;h1_3 -->
<g id="edge7" class="edge">
<title>i2&#45;&gt;h1_3</title>
<path fill="none" stroke="gray" stroke-width="0.5" d="M30.56,-112.38C41.4,-124.92 57.8,-143.89 70.47,-158.55"/>
<polygon fill="gray" stroke="gray" stroke-width="0.5" points="67.74,-160.75 76.93,-166.03 73.04,-156.18 67.74,-160.75"/>
</g>
<!-- i2&#45;&gt;h1_4 -->
<g id="edge8" class="edge">
<title>i2&#45;&gt;h1_4</title>
<path fill="none" stroke="gray" stroke-width="0.5" d="M35.24,-105.26C43.45,-108.43 53.63,-112.36 62.91,-115.94"/>
<polygon fill="gray" stroke="gray" stroke-width="0.5" points="61.56,-119.17 72.15,-119.5 64.08,-112.64 61.56,-119.17"/>
</g>
<!-- i3 -->
<g id="node3" class="node">
<title>i3</title>
<ellipse fill="white" stroke="black" cx="18" cy="-45" rx="18" ry="18"/>
</g>
<!-- i3&#45;&gt;h1_1 -->
<g id="edge9" class="edge">
<title>i3&#45;&gt;h1_1</title>
<path fill="none" stroke="gray" stroke-width="0.5" d="M35.24,-51.26C43.45,-54.43 53.63,-58.36 62.91,-61.94"/>
<polygon fill="gray" stroke="gray" stroke-width="0.5" points="61.56,-65.17 72.15,-65.5 64.08,-58.64 61.56,-65.17"/>
</g>
<!-- i3&#45;&gt;h1_2 -->
<g id="edge10" class="edge">
<title>i3&#45;&gt;h1_2</title>
<path fill="none" stroke="gray" stroke-width="0.5" d="M35.24,-38.74C43.45,-35.57 53.63,-31.64 62.91,-28.06"/>
<polygon fill="gray" stroke="gray" stroke-width="0.5" points="64.08,-31.36 72.15,-24.5 61.56,-24.83 64.08,-31.36"/>
</g>
<!-- i3&#45;&gt;h1_3 -->
<g id="edge11" class="edge">
<title>i3&#45;&gt;h1_3</title>
<path fill="none" stroke="gray" stroke-width="0.5" d="M28.92,-59.91C31.35,-63.78 33.86,-67.99 36,-72 54.54,-106.76 53.46,-118.24 72,-153 72.53,-154 73.09,-155.02 73.67,-156.04"/>
<polygon fill="gray" stroke="gray" stroke-width="0.5" points="70.56,-157.65 78.69,-164.44 76.56,-154.06 70.56,-157.65"/>
</g>
<!-- i3&#45;&gt;h1_4 -->
<g id="edge12" class="edge">
<title>i3&#45;&gt;h1_4</title>
<path fill="none" stroke="gray" stroke-width="0.5" d="M30.56,-58.38C41.4,-70.92 57.8,-89.89 70.47,-104.55"/>
<polygon fill="gray" stroke="gray" stroke-width="0.5" points="67.74,-106.75 76.93,-112.03 73.04,-102.18 67.74,-106.75"/>
</g>
<!-- h2_1 -->
<g id="node8" class="node">
<title>h2_1</title>
<ellipse fill="white" stroke="black" cx="162" cy="-153" rx="18" ry="18"/>
</g>
<!-- h1_1&#45;&gt;h2_1 -->
<g id="edge13" class="edge">
<title>h1_1&#45;&gt;h2_1</title>
<path fill="none" stroke="gray" stroke-width="0.5" d="M102.56,-85.38C113.4,-97.92 129.8,-116.89 142.47,-131.55"/>
<polygon fill="gray" stroke="gray" stroke-width="0.5" points="139.74,-133.75 148.93,-139.03 145.04,-129.18 139.74,-133.75"/>
</g>
<!-- h2_2 -->
<g id="node9" class="node">
<title>h2_2</title>
<ellipse fill="white" stroke="black" cx="162" cy="-99" rx="18" ry="18"/>
</g>
<!-- h1_1&#45;&gt;h2_2 -->
<g id="edge14" class="edge">
<title>h1_1&#45;&gt;h2_2</title>
<path fill="none" stroke="gray" stroke-width="0.5" d="M107.24,-78.26C115.45,-81.43 125.63,-85.36 134.91,-88.94"/>
<polygon fill="gray" stroke="gray" stroke-width="0.5" points="133.56,-92.17 144.15,-92.5 136.08,-85.64 133.56,-92.17"/>
</g>
<!-- h2_3 -->
<g id="node10" class="node">
<title>h2_3</title>
<ellipse fill="white" stroke="black" cx="162" cy="-45" rx="18" ry="18"/>
</g>
<!-- h1_1&#45;&gt;h2_3 -->
<g id="edge15" class="edge">
<title>h1_1&#45;&gt;h2_3</title>
<path fill="none" stroke="gray" stroke-width="0.5" d="M107.24,-65.74C115.45,-62.57 125.63,-58.64 134.91,-55.06"/>
<polygon fill="gray" stroke="gray" stroke-width="0.5" points="136.08,-58.36 144.15,-51.5 133.56,-51.83 136.08,-58.36"/>
</g>
<!-- h1_2&#45;&gt;h2_1 -->
<g id="edge16" class="edge">
<title>h1_2&#45;&gt;h2_1</title>
<path fill="none" stroke="gray" stroke-width="0.5" d="M100.92,-32.91C103.35,-36.78 105.86,-40.99 108,-45 126.54,-79.76 125.46,-91.24 144,-126 144.53,-127 145.09,-128.02 145.67,-129.04"/>
<polygon fill="gray" stroke="gray" stroke-width="0.5" points="142.56,-130.65 150.69,-137.44 148.56,-127.06 142.56,-130.65"/>
</g>
<!-- h1_2&#45;&gt;h2_2 -->
<g id="edge17" class="edge">
<title>h1_2&#45;&gt;h2_2</title>
<path fill="none" stroke="gray" stroke-width="0.5" d="M102.56,-31.38C113.4,-43.92 129.8,-62.89 142.47,-77.55"/>
<polygon fill="gray" stroke="gray" stroke-width="0.5" points="139.74,-79.75 148.93,-85.03 145.04,-75.18 139.74,-79.75"/>
</g>
<!-- h1_2&#45;&gt;h2_3 -->
<g id="edge18" class="edge">
<title>h1_2&#45;&gt;h2_3</title>
<path fill="none" stroke="gray" stroke-width="0.5" d="M107.24,-24.26C115.45,-27.43 125.63,-31.36 134.91,-34.94"/>
<polygon fill="gray" stroke="gray" stroke-width="0.5" points="133.56,-38.17 144.15,-38.5 136.08,-31.64 133.56,-38.17"/>
</g>
<!-- h1_3&#45;&gt;h2_1 -->
<g id="edge19" class="edge">
<title>h1_3&#45;&gt;h2_1</title>
<path fill="none" stroke="gray" stroke-width="0.5" d="M107.24,-173.74C115.45,-170.57 125.63,-166.64 134.91,-163.06"/>
<polygon fill="gray" stroke="gray" stroke-width="0.5" points="136.08,-166.36 144.15,-159.5 133.56,-159.83 136.08,-166.36"/>
</g>
<!-- h1_3&#45;&gt;h2_2 -->
<g id="edge20" class="edge">
<title>h1_3&#45;&gt;h2_2</title>
<path fill="none" stroke="gray" stroke-width="0.5" d="M102.56,-166.62C113.4,-154.08 129.8,-135.11 142.47,-120.45"/>
<polygon fill="gray" stroke="gray" stroke-width="0.5" points="145.04,-122.82 148.93,-112.97 139.74,-118.25 145.04,-122.82"/>
</g>
<!-- h1_3&#45;&gt;h2_3 -->
<g id="edge21" class="edge">
<title>h1_3&#45;&gt;h2_3</title>
<path fill="none" stroke="gray" stroke-width="0.5" d="M100.92,-165.09C103.35,-161.22 105.86,-157.01 108,-153 126.54,-118.24 125.46,-106.76 144,-72 144.53,-71 145.09,-69.98 145.67,-68.96"/>
<polygon fill="gray" stroke="gray" stroke-width="0.5" points="148.56,-70.94 150.69,-60.56 142.56,-67.35 148.56,-70.94"/>
</g>
<!-- h1_4&#45;&gt;h2_1 -->
<g id="edge22" class="edge">
<title>h1_4&#45;&gt;h2_1</title>
<path fill="none" stroke="gray" stroke-width="0.5" d="M107.24,-132.26C115.45,-135.43 125.63,-139.36 134.91,-142.94"/>
<polygon fill="gray" stroke="gray" stroke-width="0.5" points="133.56,-146.17 144.15,-146.5 136.08,-139.64 133.56,-146.17"/>
</g>
<!-- h1_4&#45;&gt;h2_2 -->
<g id="edge23" class="edge">
<title>h1_4&#45;&gt;h2_2</title>
<path fill="none" stroke="gray" stroke-width="0.5" d="M107.24,-119.74C115.45,-116.57 125.63,-112.64 134.91,-109.06"/>
<polygon fill="gray" stroke="gray" stroke-width="0.5" points="136.08,-112.36 144.15,-105.5 133.56,-105.83 136.08,-112.36"/>
</g>
<!-- h1_4&#45;&gt;h2_3 -->
<g id="edge24" class="edge">
<title>h1_4&#45;&gt;h2_3</title>
<path fill="none" stroke="gray" stroke-width="0.5" d="M102.56,-112.62C113.4,-100.08 129.8,-81.11 142.47,-66.45"/>
<polygon fill="gray" stroke="gray" stroke-width="0.5" points="145.04,-68.82 148.93,-58.97 139.74,-64.25 145.04,-68.82"/>
</g>
<!-- o1 -->
<g id="node11" class="node">
<title>o1</title>
<ellipse fill="white" stroke="black" cx="234" cy="-126" rx="18" ry="18"/>
</g>
<!-- h2_1&#45;&gt;o1 -->
<g id="edge25" class="edge">
<title>h2_1&#45;&gt;o1</title>
<path fill="none" stroke="gray" stroke-width="0.5" d="M179.24,-146.74C187.45,-143.57 197.63,-139.64 206.91,-136.06"/>
<polygon fill="gray" stroke="gray" stroke-width="0.5" points="208.08,-139.36 216.15,-132.5 205.56,-132.83 208.08,-139.36"/>
</g>
<!-- o2 -->
<g id="node12" class="node">
<title>o2</title>
<ellipse fill="white" stroke="black" cx="234" cy="-72" rx="18" ry="18"/>
</g>
<!-- h2_1&#45;&gt;o2 -->
<g id="edge26" class="edge">
<title>h2_1&#45;&gt;o2</title>
<path fill="none" stroke="gray" stroke-width="0.5" d="M174.56,-139.62C185.4,-127.08 201.8,-108.11 214.47,-93.45"/>
<polygon fill="gray" stroke="gray" stroke-width="0.5" points="217.04,-95.82 220.93,-85.97 211.74,-91.25 217.04,-95.82"/>
</g>
<!-- h2_2&#45;&gt;o1 -->
<g id="edge27" class="edge">
<title>h2_2&#45;&gt;o1</title>
<path fill="none" stroke="gray" stroke-width="0.5" d="M179.24,-105.26C187.45,-108.43 197.63,-112.36 206.91,-115.94"/>
<polygon fill="gray" stroke="gray" stroke-width="0.5" points="205.56,-119.17 216.15,-119.5 208.08,-112.64 205.56,-119.17"/>
</g>
<!-- h2_2&#45;&gt;o2 -->
<g id="edge28" class="edge">
<title>h2_2&#45;&gt;o2</title>
<path fill="none" stroke="gray" stroke-width="0.5" d="M179.24,-92.74C187.45,-89.57 197.63,-85.64 206.91,-82.06"/>
<polygon fill="gray" stroke="gray" stroke-width="0.5" points="208.08,-85.36 216.15,-78.5 205.56,-78.83 208.08,-85.36"/>
</g>
<!-- h2_3&#45;&gt;o1 -->
<g id="edge29" class="edge">
<title>h2_3&#45;&gt;o1</title>
<path fill="none" stroke="gray" stroke-width="0.5" d="M174.56,-58.38C185.4,-70.92 201.8,-89.89 214.47,-104.55"/>
<polygon fill="gray" stroke="gray" stroke-width="0.5" points="211.74,-106.75 220.93,-112.03 217.04,-102.18 211.74,-106.75"/>
</g>
<!-- h2_3&#45;&gt;o2 -->
<g id="edge30" class="edge">
<title>h2_3&#45;&gt;o2</title>
<path fill="none" stroke="gray" stroke-width="0.5" d="M179.24,-51.26C187.45,-54.43 197.63,-58.36 206.91,-61.94"/>
<polygon fill="gray" stroke="gray" stroke-width="0.5" points="205.56,-65.17 216.15,-65.5 208.08,-58.64 205.56,-65.17"/>
</g>
</g>
</svg>
