<?xml version="1.0" encoding="utf-8" standalone="no"?>
<!DOCTYPE svg PUBLIC "-//W3C//DTD SVG 1.1//EN"
  "http://www.w3.org/Graphics/SVG/1.1/DTD/svg11.dtd">
<svg xmlns:xlink="http://www.w3.org/1999/xlink" width="324pt" height="72pt" viewBox="0 0 324 72" xmlns="http://www.w3.org/2000/svg" version="1.1">
 <metadata>
  <rdf:RDF xmlns:dc="http://purl.org/dc/elements/1.1/" xmlns:cc="http://creativecommons.org/ns#" xmlns:rdf="http://www.w3.org/1999/02/22-rdf-syntax-ns#">
   <cc:Work>
    <dc:type rdf:resource="http://purl.org/dc/dcmitype/StillImage"/>
    <dc:date>2025-06-29T15:09:17.919538</dc:date>
    <dc:format>image/svg+xml</dc:format>
    <dc:creator>
     <cc:Agent>
      <dc:title>Matplotlib v3.7.2, https://matplotlib.org/</dc:title>
     </cc:Agent>
    </dc:creator>
   </cc:Work>
  </rdf:RDF>
 </metadata>
 <defs>
  <style type="text/css">*{stroke-linejoin: round; stroke-linecap: butt}</style>
 </defs>
 <g id="figure_1">
  <g id="patch_1">
   <path d="M 0 72 
L 324 72 
L 324 0 
L 0 0 
L 0 72 
z
" style="fill: none"/>
  </g>
  <g id="axes_1">
   <g id="patch_2">
    <path d="M 66.407143 61.270714 
C 73.013542 61.270714 79.350249 58.645964 84.021678 53.974535 
C 88.693107 49.303106 91.317857 42.966399 91.317857 36.36 
C 91.317857 29.753601 88.693107 23.416894 84.021678 18.745465 
C 79.350249 14.074036 73.013542 11.449286 66.407143 11.449286 
C 59.800744 11.449286 53.464037 14.074036 48.792608 18.745465 
C 44.121179 23.416894 41.496429 29.753601 41.496429 36.36 
C 41.496429 42.966399 44.121179 49.303106 48.792608 53.974535 
C 53.464037 58.645964 59.800744 61.270714 66.407143 61.270714 
z
" clip-path="url(#p88d39ec8e5)" style="fill: #ffffff; stroke: #000000; stroke-linejoin: miter"/>
   </g>
   <g id="patch_3">
    <path d="M 166.05 61.270714 
C 172.656399 61.270714 178.993106 58.645964 183.664535 53.974535 
C 188.335964 49.303106 190.960714 42.966399 190.960714 36.36 
C 190.960714 29.753601 188.335964 23.416894 183.664535 18.745465 
C 178.993106 14.074036 172.656399 11.449286 166.05 11.449286 
C 159.443601 11.449286 153.106894 14.074036 148.435465 18.745465 
C 143.764036 23.416894 141.139286 29.753601 141.139286 36.36 
C 141.139286 42.966399 143.764036 49.303106 148.435465 53.974535 
C 153.106894 58.645964 159.443601 61.270714 166.05 61.270714 
z
" clip-path="url(#p88d39ec8e5)" style="fill: #ffffff; stroke: #000000; stroke-linejoin: miter"/>
   </g>
   <g id="patch_4">
    <path d="M 265.692857 61.270714 
C 272.299256 61.270714 278.635963 58.645964 283.307392 53.974535 
C 287.978821 49.303106 290.603571 42.966399 290.603571 36.36 
C 290.603571 29.753601 287.978821 23.416894 283.307392 18.745465 
C 278.635963 14.074036 272.299256 11.449286 265.692857 11.449286 
C 259.086458 11.449286 252.749751 14.074036 248.078322 18.745465 
C 243.406893 23.416894 240.782143 29.753601 240.782143 36.36 
C 240.782143 42.966399 243.406893 49.303106 248.078322 53.974535 
C 252.749751 58.645964 259.086458 61.270714 265.692857 61.270714 
z
" clip-path="url(#p88d39ec8e5)" style="fill: #ffffff; stroke: #000000; stroke-linejoin: miter"/>
   </g>
   <g id="text_1">
    <!-- $x$ -->
    <g transform="translate(62.807143 39.67125) scale(0.12 -0.12)">
     <defs>
      <path id="DejaVuSans-Oblique-78" d="M 3841 3500 
L 2234 1784 
L 3219 0 
L 2559 0 
L 1819 1388 
L 531 0 
L -166 0 
L 1556 1844 
L 641 3500 
L 1300 3500 
L 1972 2234 
L 3144 3500 
L 3841 3500 
z
" transform="scale(0.015625)"/>
     </defs>
     <use xlink:href="#DejaVuSans-Oblique-78" transform="translate(0 0.3125)"/>
    </g>
   </g>
   <g id="text_2">
    <!-- $h$ -->
    <g transform="translate(162.21 39.67125) scale(0.12 -0.12)">
     <defs>
      <path id="DejaVuSans-Oblique-68" d="M 3566 2113 
L 3156 0 
L 2578 0 
L 2988 2091 
Q 3016 2238 3031 2350 
Q 3047 2463 3047 2528 
Q 3047 2791 2881 2937 
Q 2716 3084 2419 3084 
Q 1956 3084 1617 2771 
Q 1278 2459 1178 1941 
L 800 0 
L 225 0 
L 1172 4863 
L 1747 4863 
L 1375 2950 
Q 1594 3244 1934 3414 
Q 2275 3584 2650 3584 
Q 3113 3584 3367 3334 
Q 3622 3084 3622 2631 
Q 3622 2519 3608 2391 
Q 3594 2263 3566 2113 
z
" transform="scale(0.015625)"/>
     </defs>
     <use xlink:href="#DejaVuSans-Oblique-68" transform="translate(0 0.015625)"/>
    </g>
   </g>
   <g id="text_3">
    <!-- $y$ -->
    <g transform="translate(262.092857 39.646875) scale(0.12 -0.12)">
     <defs>
      <path id="DejaVuSans-Oblique-79" d="M 1588 -325 
Q 1188 -997 936 -1164 
Q 684 -1331 294 -1331 
L -159 -1331 
L -63 -850 
L 269 -850 
Q 509 -850 678 -719 
Q 847 -588 1056 -206 
L 1234 128 
L 459 3500 
L 1069 3500 
L 1650 819 
L 3256 3500 
L 3859 3500 
L 1588 -325 
z
" transform="scale(0.015625)"/>
     </defs>
     <use xlink:href="#DejaVuSans-Oblique-79" transform="translate(0 0.3125)"/>
    </g>
   </g>
   <g id="patch_5">
    <path d="M 91.317857 35.86 
Q 110.227437 35.86 129.137017 35.86 
L 129.137017 32.36 
Q 135.138151 34.36 141.139286 36.36 
Q 135.138151 38.36 129.137017 40.36 
L 129.137017 36.86 
Q 110.227437 36.86 91.317857 36.86 
L 91.317857 35.86 
z
" style="fill: #808080; stroke: #808080; stroke-width: 0.1; stroke-linecap: round"/>
   </g>
   <g id="patch_6">
    <path d="M 190.960714 35.86 
Q 209.870294 35.86 228.779874 35.86 
L 228.779874 32.36 
Q 234.781008 34.36 240.782143 36.36 
Q 234.781008 38.36 228.779874 40.36 
L 228.779874 36.86 
Q 209.870294 36.86 190.960714 36.86 
L 190.960714 35.86 
z
" style="fill: #808080; stroke: #808080; stroke-width: 0.1; stroke-linecap: round"/>
   </g>
  </g>
 </g>
 <defs>
  <clipPath id="p88d39ec8e5">
   <rect x="40.5" y="10.452857" width="251.1" height="51.814286"/>
  </clipPath>
 </defs>
</svg>
