<?xml version="1.0" encoding="utf-8" standalone="no"?>
<!DOCTYPE svg PUBLIC "-//W3C//DTD SVG 1.1//EN"
  "http://www.w3.org/Graphics/SVG/1.1/DTD/svg11.dtd">
<svg xmlns:xlink="http://www.w3.org/1999/xlink" width="191.590313pt" height="199.73125pt" viewBox="0 0 191.590313 199.73125" xmlns="http://www.w3.org/2000/svg" version="1.1">
 <metadata>
  <rdf:RDF xmlns:dc="http://purl.org/dc/elements/1.1/" xmlns:cc="http://creativecommons.org/ns#" xmlns:rdf="http://www.w3.org/1999/02/22-rdf-syntax-ns#">
   <cc:Work>
    <dc:type rdf:resource="http://purl.org/dc/dcmitype/StillImage"/>
    <dc:date>2025-09-13T17:54:04.599410</dc:date>
    <dc:format>image/svg+xml</dc:format>
    <dc:creator>
     <cc:Agent>
      <dc:title>Matplotlib v3.7.2, https://matplotlib.org/</dc:title>
     </cc:Agent>
    </dc:creator>
   </cc:Work>
  </rdf:RDF>
 </metadata>
 <defs>
  <style type="text/css">*{stroke-linejoin: round; stroke-linecap: butt}</style>
 </defs>
 <g id="figure_1">
  <g id="patch_1">
   <path d="M 0 199.73125 
L 191.590312 199.73125 
L 191.590312 0 
L 0 0 
L 0 199.73125 
z
" style="fill: none"/>
  </g>
  <g id="axes_1">
   <g id="patch_2">
    <path d="M 33.950313 170.838437 
L 183.750313 170.838437 
L 183.750313 21.038437 
L 33.950313 21.038437 
L 33.950313 170.838437 
z
" style="fill: none"/>
   </g>
   <g id="PathCollection_1">
    <defs>
     <path id="m4ea112b602" d="M 0 1.936492 
C 0.513564 1.936492 1.006162 1.732451 1.369306 1.369306 
C 1.732451 1.006162 1.936492 0.513564 1.936492 0 
C 1.936492 -0.513564 1.732451 -1.006162 1.369306 -1.369306 
C 1.006162 -1.732451 0.513564 -1.936492 0 -1.936492 
C -0.513564 -1.936492 -1.006162 -1.732451 -1.369306 -1.369306 
C -1.732451 -1.006162 -1.936492 -0.513564 -1.936492 0 
C -1.936492 0.513564 -1.732451 1.006162 -1.369306 1.369306 
C -1.006162 1.732451 -0.513564 1.936492 0 1.936492 
z
" style="stroke: #0072b2"/>
    </defs>
    <g>
     <use xlink:href="#m4ea112b602" x="93.870313" y="21.038437" style="fill: #0072b2; stroke: #0072b2"/>
    </g>
   </g>
   <g id="PathCollection_2">
    <defs>
     <path id="m08906ce588" d="M 0 4.330127 
C 1.148363 4.330127 2.249847 3.873878 3.061862 3.061862 
C 3.873878 2.249847 4.330127 1.148363 4.330127 0 
C 4.330127 -1.148363 3.873878 -2.249847 3.061862 -3.061862 
C 2.249847 -3.873878 1.148363 -4.330127 0 -4.330127 
C -1.148363 -4.330127 -2.249847 -3.873878 -3.061862 -3.061862 
C -3.873878 -2.249847 -4.330127 -1.148363 -4.330127 0 
C -4.330127 1.148363 -3.873878 2.249847 -3.061862 3.061862 
C -2.249847 3.873878 -1.148363 4.330127 0 4.330127 
z
" style="stroke: #e69f00"/>
    </defs>
    <g>
     <use xlink:href="#m08906ce588" x="108.850313" y="21.038437" style="fill: #e69f00; stroke: #e69f00"/>
     <use xlink:href="#m08906ce588" x="108.850313" y="21.038437" style="fill: #e69f00; stroke: #e69f00"/>
     <use xlink:href="#m08906ce588" x="108.850313" y="21.038437" style="fill: #e69f00; stroke: #e69f00"/>
     <use xlink:href="#m08906ce588" x="183.750313" y="95.938437" style="fill: #e69f00; stroke: #e69f00"/>
     <use xlink:href="#m08906ce588" x="183.750313" y="95.938437" style="fill: #e69f00; stroke: #e69f00"/>
    </g>
   </g>
   <g id="PathCollection_3">
    <defs>
     <path id="mc1f0642198" d="M 0 3.354102 
C 0.889518 3.354102 1.742724 3.000693 2.371708 2.371708 
C 3.000693 1.742724 3.354102 0.889518 3.354102 0 
C 3.354102 -0.889518 3.000693 -1.742724 2.371708 -2.371708 
C 1.742724 -3.000693 0.889518 -3.354102 0 -3.354102 
C -0.889518 -3.354102 -1.742724 -3.000693 -2.371708 -2.371708 
C -3.000693 -1.742724 -3.354102 -0.889518 -3.354102 0 
C -3.354102 0.889518 -3.000693 1.742724 -2.371708 2.371708 
C -1.742724 3.000693 -0.889518 3.354102 0 3.354102 
z
" style="stroke: #009e73"/>
    </defs>
    <g>
     <use xlink:href="#mc1f0642198" x="133.816979" y="21.038437" style="fill: #009e73; stroke: #009e73"/>
     <use xlink:href="#mc1f0642198" x="133.816979" y="21.038437" style="fill: #009e73; stroke: #009e73"/>
     <use xlink:href="#mc1f0642198" x="133.816979" y="21.038437" style="fill: #009e73; stroke: #009e73"/>
    </g>
   </g>
   <g id="PathCollection_4">
    <defs>
     <path id="mc5010ed975" d="M 0 1.936492 
C 0.513564 1.936492 1.006162 1.732451 1.369306 1.369306 
C 1.732451 1.006162 1.936492 0.513564 1.936492 0 
C 1.936492 -0.513564 1.732451 -1.006162 1.369306 -1.369306 
C 1.006162 -1.732451 0.513564 -1.936492 0 -1.936492 
C -0.513564 -1.936492 -1.006162 -1.732451 -1.369306 -1.369306 
C -1.732451 -1.006162 -1.936492 -0.513564 -1.936492 0 
C -1.936492 0.513564 -1.732451 1.006162 -1.369306 1.369306 
C -1.006162 1.732451 -0.513564 1.936492 0 1.936492 
z
" style="stroke: #d55e00"/>
    </defs>
    <g>
     <use xlink:href="#mc5010ed975" x="183.750313" y="21.038437" style="fill: #d55e00; stroke: #d55e00"/>
    </g>
   </g>
   <g id="PathCollection_5">
    <defs>
     <path id="mfcbe90be53" d="M 0 2.738613 
C 0.726289 2.738613 1.422928 2.450055 1.936492 1.936492 
C 2.450055 1.422928 2.738613 0.726289 2.738613 0 
C 2.738613 -0.726289 2.450055 -1.422928 1.936492 -1.936492 
C 1.422928 -2.450055 0.726289 -2.738613 0 -2.738613 
C -0.726289 -2.738613 -1.422928 -2.450055 -1.936492 -1.936492 
C -2.450055 -1.422928 -2.738613 -0.726289 -2.738613 0 
C -2.738613 0.726289 -2.450055 1.422928 -1.936492 1.936492 
C -1.422928 2.450055 -0.726289 2.738613 0 2.738613 
z
" style="stroke: #cc79a7"/>
    </defs>
    <g>
     <use xlink:href="#mfcbe90be53" x="71.400313" y="95.938437" style="fill: #cc79a7; stroke: #cc79a7"/>
     <use xlink:href="#mfcbe90be53" x="71.400313" y="95.938437" style="fill: #cc79a7; stroke: #cc79a7"/>
    </g>
   </g>
   <g id="PathCollection_6">
    <defs>
     <path id="maf4a6ebdbe" d="M 0 4.743416 
C 1.257969 4.743416 2.464584 4.24362 3.354102 3.354102 
C 4.24362 2.464584 4.743416 1.257969 4.743416 0 
C 4.743416 -1.257969 4.24362 -2.464584 3.354102 -3.354102 
C 2.464584 -4.24362 1.257969 -4.743416 0 -4.743416 
C -1.257969 -4.743416 -2.464584 -4.24362 -3.354102 -3.354102 
C -4.24362 -2.464584 -4.743416 -1.257969 -4.743416 0 
C -4.743416 1.257969 -4.24362 2.464584 -3.354102 3.354102 
C -2.464584 4.24362 -1.257969 4.743416 0 4.743416 
z
" style="stroke: #f0e442"/>
    </defs>
    <g>
     <use xlink:href="#maf4a6ebdbe" x="83.883646" y="95.938437" style="fill: #f0e442; stroke: #f0e442"/>
     <use xlink:href="#maf4a6ebdbe" x="83.883646" y="95.938437" style="fill: #f0e442; stroke: #f0e442"/>
     <use xlink:href="#maf4a6ebdbe" x="83.883646" y="95.938437" style="fill: #f0e442; stroke: #f0e442"/>
     <use xlink:href="#maf4a6ebdbe" x="83.883646" y="95.938437" style="fill: #f0e442; stroke: #f0e442"/>
     <use xlink:href="#maf4a6ebdbe" x="83.883646" y="95.938437" style="fill: #f0e442; stroke: #f0e442"/>
     <use xlink:href="#maf4a6ebdbe" x="83.883646" y="95.938437" style="fill: #f0e442; stroke: #f0e442"/>
    </g>
   </g>
   <g id="PathCollection_7">
    <defs>
     <path id="m4bf3763aed" d="M 0 4.743416 
C 1.257969 4.743416 2.464584 4.24362 3.354102 3.354102 
C 4.24362 2.464584 4.743416 1.257969 4.743416 0 
C 4.743416 -1.257969 4.24362 -2.464584 3.354102 -3.354102 
C 2.464584 -4.24362 1.257969 -4.743416 0 -4.743416 
C -1.257969 -4.743416 -2.464584 -4.24362 -3.354102 -3.354102 
C -4.24362 -2.464584 -4.743416 -1.257969 -4.743416 0 
C -4.743416 1.257969 -4.24362 2.464584 -3.354102 3.354102 
C -2.464584 4.24362 -1.257969 4.743416 0 4.743416 
z
" style="stroke: #56b4e9"/>
    </defs>
    <g>
     <use xlink:href="#m4bf3763aed" x="108.850313" y="95.938437" style="fill: #56b4e9; stroke: #56b4e9"/>
     <use xlink:href="#m4bf3763aed" x="108.850313" y="95.938437" style="fill: #56b4e9; stroke: #56b4e9"/>
     <use xlink:href="#m4bf3763aed" x="108.850313" y="95.938437" style="fill: #56b4e9; stroke: #56b4e9"/>
     <use xlink:href="#m4bf3763aed" x="108.850313" y="95.938437" style="fill: #56b4e9; stroke: #56b4e9"/>
     <use xlink:href="#m4bf3763aed" x="108.850313" y="95.938437" style="fill: #56b4e9; stroke: #56b4e9"/>
     <use xlink:href="#m4bf3763aed" x="108.850313" y="95.938437" style="fill: #56b4e9; stroke: #56b4e9"/>
    </g>
   </g>
   <g id="PathCollection_8"/>
   <g id="PathCollection_9">
    <g>
     <use xlink:href="#m4ea112b602" x="33.950313" y="170.838437" style="fill: #0072b2; stroke: #0072b2"/>
    </g>
   </g>
   <g id="matplotlib.axis_1">
    <g id="xtick_1">
     <g id="line2d_1">
      <defs>
       <path id="mc584493726" d="M 0 0 
L 0 3.5 
" style="stroke: #000000; stroke-width: 0.8"/>
      </defs>
      <g>
       <use xlink:href="#mc584493726" x="33.950313" y="170.838437" style="stroke: #000000; stroke-width: 0.8"/>
      </g>
     </g>
     <g id="text_1">
      <!-- $\mathdefault{0.0}$ -->
      <g transform="translate(27.550313 183.917187) scale(0.08 -0.08)">
       <defs>
        <path id="DejaVuSerif-30" d="M 2034 219 
Q 2513 219 2750 744 
Q 2988 1269 2988 2328 
Q 2988 3391 2750 3916 
Q 2513 4441 2034 4441 
Q 1556 4441 1318 3916 
Q 1081 3391 1081 2328 
Q 1081 1269 1318 744 
Q 1556 219 2034 219 
z
M 2034 -91 
Q 1275 -91 848 546 
Q 422 1184 422 2328 
Q 422 3475 848 4112 
Q 1275 4750 2034 4750 
Q 2797 4750 3222 4112 
Q 3647 3475 3647 2328 
Q 3647 1184 3222 546 
Q 2797 -91 2034 -91 
z
" transform="scale(0.015625)"/>
        <path id="DejaVuSerif-2e" d="M 603 325 
Q 603 500 722 622 
Q 841 744 1019 744 
Q 1191 744 1312 622 
Q 1434 500 1434 325 
Q 1434 153 1312 31 
Q 1191 -91 1019 -91 
Q 841 -91 722 29 
Q 603 150 603 325 
z
" transform="scale(0.015625)"/>
       </defs>
       <use xlink:href="#DejaVuSerif-30" transform="translate(0 0.78125)"/>
       <use xlink:href="#DejaVuSerif-2e" transform="translate(63.623047 0.78125)"/>
       <use xlink:href="#DejaVuSerif-30" transform="translate(95.410156 0.78125)"/>
      </g>
     </g>
    </g>
    <g id="xtick_2">
     <g id="line2d_2">
      <g>
       <use xlink:href="#mc584493726" x="63.910313" y="170.838437" style="stroke: #000000; stroke-width: 0.8"/>
      </g>
     </g>
     <g id="text_2">
      <!-- $\mathdefault{0.2}$ -->
      <g transform="translate(57.630313 183.917187) scale(0.08 -0.08)">
       <defs>
        <path id="DejaVuSerif-32" d="M 819 3553 
L 469 3553 
L 469 4384 
Q 803 4563 1142 4656 
Q 1481 4750 1806 4750 
Q 2534 4750 2956 4397 
Q 3378 4044 3378 3438 
Q 3378 2753 2422 1800 
Q 2347 1728 2309 1691 
L 1131 513 
L 3078 513 
L 3078 1088 
L 3444 1088 
L 3444 0 
L 434 0 
L 434 341 
L 1850 1753 
Q 2319 2222 2519 2614 
Q 2719 3006 2719 3438 
Q 2719 3909 2473 4175 
Q 2228 4441 1797 4441 
Q 1350 4441 1106 4219 
Q 863 3997 819 3553 
z
" transform="scale(0.015625)"/>
       </defs>
       <use xlink:href="#DejaVuSerif-30" transform="translate(0 0.78125)"/>
       <use xlink:href="#DejaVuSerif-2e" transform="translate(63.623047 0.78125)"/>
       <use xlink:href="#DejaVuSerif-32" transform="translate(92.785156 0.78125)"/>
      </g>
     </g>
    </g>
    <g id="xtick_3">
     <g id="line2d_3">
      <g>
       <use xlink:href="#mc584493726" x="93.870313" y="170.838437" style="stroke: #000000; stroke-width: 0.8"/>
      </g>
     </g>
     <g id="text_3">
      <!-- $\mathdefault{0.4}$ -->
      <g transform="translate(87.470313 183.917187) scale(0.08 -0.08)">
       <defs>
        <path id="DejaVuSerif-34" d="M 2234 1581 
L 2234 4063 
L 641 1581 
L 2234 1581 
z
M 3609 0 
L 1484 0 
L 1484 331 
L 2234 331 
L 2234 1247 
L 197 1247 
L 197 1588 
L 2241 4750 
L 2859 4750 
L 2859 1581 
L 3750 1581 
L 3750 1247 
L 2859 1247 
L 2859 331 
L 3609 331 
L 3609 0 
z
" transform="scale(0.015625)"/>
       </defs>
       <use xlink:href="#DejaVuSerif-30" transform="translate(0 0.78125)"/>
       <use xlink:href="#DejaVuSerif-2e" transform="translate(63.623047 0.78125)"/>
       <use xlink:href="#DejaVuSerif-34" transform="translate(95.410156 0.78125)"/>
      </g>
     </g>
    </g>
    <g id="xtick_4">
     <g id="line2d_4">
      <g>
       <use xlink:href="#mc584493726" x="123.830313" y="170.838437" style="stroke: #000000; stroke-width: 0.8"/>
      </g>
     </g>
     <g id="text_4">
      <!-- $\mathdefault{0.6}$ -->
      <g transform="translate(117.430313 183.917187) scale(0.08 -0.08)">
       <defs>
        <path id="DejaVuSerif-36" d="M 2094 219 
Q 2534 219 2771 542 
Q 3009 866 3009 1472 
Q 3009 2078 2771 2401 
Q 2534 2725 2094 2725 
Q 1647 2725 1412 2412 
Q 1178 2100 1178 1509 
Q 1178 888 1415 553 
Q 1653 219 2094 219 
z
M 1075 2569 
Q 1288 2803 1556 2918 
Q 1825 3034 2163 3034 
Q 2859 3034 3264 2615 
Q 3669 2197 3669 1472 
Q 3669 763 3233 336 
Q 2797 -91 2069 -91 
Q 1278 -91 853 498 
Q 428 1088 428 2181 
Q 428 3406 931 4078 
Q 1434 4750 2350 4750 
Q 2597 4750 2869 4703 
Q 3141 4656 3425 4563 
L 3425 3794 
L 3072 3794 
Q 3034 4109 2831 4275 
Q 2628 4441 2284 4441 
Q 1678 4441 1381 3981 
Q 1084 3522 1075 2569 
z
" transform="scale(0.015625)"/>
       </defs>
       <use xlink:href="#DejaVuSerif-30" transform="translate(0 0.78125)"/>
       <use xlink:href="#DejaVuSerif-2e" transform="translate(63.623047 0.78125)"/>
       <use xlink:href="#DejaVuSerif-36" transform="translate(95.410156 0.78125)"/>
      </g>
     </g>
    </g>
    <g id="xtick_5">
     <g id="line2d_5">
      <g>
       <use xlink:href="#mc584493726" x="153.790313" y="170.838437" style="stroke: #000000; stroke-width: 0.8"/>
      </g>
     </g>
     <g id="text_5">
      <!-- $\mathdefault{0.8}$ -->
      <g transform="translate(147.550313 183.917187) scale(0.08 -0.08)">
       <defs>
        <path id="DejaVuSerif-38" d="M 2981 1275 
Q 2981 1775 2732 2051 
Q 2484 2328 2034 2328 
Q 1584 2328 1336 2051 
Q 1088 1775 1088 1275 
Q 1088 772 1336 495 
Q 1584 219 2034 219 
Q 2484 219 2732 495 
Q 2981 772 2981 1275 
z
M 2853 3541 
Q 2853 3966 2637 4203 
Q 2422 4441 2034 4441 
Q 1650 4441 1433 4203 
Q 1216 3966 1216 3541 
Q 1216 3113 1433 2875 
Q 1650 2638 2034 2638 
Q 2422 2638 2637 2875 
Q 2853 3113 2853 3541 
z
M 2516 2484 
Q 3047 2413 3344 2092 
Q 3641 1772 3641 1275 
Q 3641 619 3225 264 
Q 2809 -91 2034 -91 
Q 1263 -91 845 264 
Q 428 619 428 1275 
Q 428 1772 725 2092 
Q 1022 2413 1556 2484 
Q 1084 2569 832 2842 
Q 581 3116 581 3541 
Q 581 4103 968 4426 
Q 1356 4750 2034 4750 
Q 2713 4750 3100 4426 
Q 3488 4103 3488 3541 
Q 3488 3116 3236 2842 
Q 2984 2569 2516 2484 
z
" transform="scale(0.015625)"/>
       </defs>
       <use xlink:href="#DejaVuSerif-30" transform="translate(0 0.78125)"/>
       <use xlink:href="#DejaVuSerif-2e" transform="translate(63.623047 0.78125)"/>
       <use xlink:href="#DejaVuSerif-38" transform="translate(91.785156 0.78125)"/>
      </g>
     </g>
    </g>
    <g id="xtick_6">
     <g id="line2d_6">
      <g>
       <use xlink:href="#mc584493726" x="183.750313" y="170.838437" style="stroke: #000000; stroke-width: 0.8"/>
      </g>
     </g>
     <g id="text_6">
      <!-- $\mathdefault{1.0}$ -->
      <g transform="translate(177.350313 183.917187) scale(0.08 -0.08)">
       <defs>
        <path id="DejaVuSerif-31" d="M 909 0 
L 909 331 
L 1722 331 
L 1722 4213 
L 781 3603 
L 781 4013 
L 1919 4750 
L 2350 4750 
L 2350 331 
L 3163 331 
L 3163 0 
L 909 0 
z
" transform="scale(0.015625)"/>
       </defs>
       <use xlink:href="#DejaVuSerif-31" transform="translate(0 0.78125)"/>
       <use xlink:href="#DejaVuSerif-2e" transform="translate(63.623047 0.78125)"/>
       <use xlink:href="#DejaVuSerif-30" transform="translate(95.410156 0.78125)"/>
      </g>
     </g>
    </g>
    <g id="text_7">
     <!-- Precision -->
     <g transform="translate(87.693281 196.419531) scale(0.09 -0.09)">
      <defs>
       <path id="DejaVuSerif-50" d="M 1581 2375 
L 2406 2375 
Q 2872 2375 3115 2626 
Q 3359 2878 3359 3353 
Q 3359 3831 3115 4081 
Q 2872 4331 2406 4331 
L 1581 4331 
L 1581 2375 
z
M 353 0 
L 353 331 
L 947 331 
L 947 4331 
L 353 4331 
L 353 4666 
L 2559 4666 
Q 3259 4666 3668 4311 
Q 4078 3956 4078 3353 
Q 4078 2753 3668 2397 
Q 3259 2041 2559 2041 
L 1581 2041 
L 1581 331 
L 2303 331 
L 2303 0 
L 353 0 
z
" transform="scale(0.015625)"/>
       <path id="DejaVuSerif-72" d="M 3059 3328 
L 3059 2497 
L 2728 2497 
Q 2713 2744 2591 2866 
Q 2469 2988 2234 2988 
Q 1809 2988 1582 2694 
Q 1356 2400 1356 1850 
L 1356 331 
L 2022 331 
L 2022 0 
L 263 0 
L 263 331 
L 781 331 
L 781 2994 
L 231 2994 
L 231 3322 
L 1356 3322 
L 1356 2731 
Q 1525 3078 1790 3245 
Q 2056 3413 2438 3413 
Q 2578 3413 2733 3391 
Q 2888 3369 3059 3328 
z
" transform="scale(0.015625)"/>
       <path id="DejaVuSerif-65" d="M 3469 1600 
L 991 1600 
L 991 1575 
Q 991 903 1244 561 
Q 1497 219 1991 219 
Q 2369 219 2611 417 
Q 2853 616 2950 1006 
L 3413 1006 
Q 3275 459 2904 184 
Q 2534 -91 1931 -91 
Q 1203 -91 761 389 
Q 319 869 319 1663 
Q 319 2450 753 2931 
Q 1188 3413 1894 3413 
Q 2647 3413 3050 2948 
Q 3453 2484 3469 1600 
z
M 2791 1931 
Q 2772 2513 2545 2808 
Q 2319 3103 1894 3103 
Q 1497 3103 1269 2806 
Q 1041 2509 991 1931 
L 2791 1931 
z
" transform="scale(0.015625)"/>
       <path id="DejaVuSerif-63" d="M 3291 997 
Q 3169 466 2822 187 
Q 2475 -91 1925 -91 
Q 1200 -91 759 389 
Q 319 869 319 1663 
Q 319 2459 759 2936 
Q 1200 3413 1925 3413 
Q 2241 3413 2553 3339 
Q 2866 3266 3181 3116 
L 3181 2266 
L 2847 2266 
Q 2781 2703 2561 2903 
Q 2341 3103 1931 3103 
Q 1466 3103 1228 2742 
Q 991 2381 991 1663 
Q 991 944 1227 581 
Q 1463 219 1931 219 
Q 2303 219 2525 412 
Q 2747 606 2828 997 
L 3291 997 
z
" transform="scale(0.015625)"/>
       <path id="DejaVuSerif-69" d="M 622 4353 
Q 622 4497 726 4603 
Q 831 4709 978 4709 
Q 1122 4709 1226 4603 
Q 1331 4497 1331 4353 
Q 1331 4206 1228 4103 
Q 1125 4000 978 4000 
Q 831 4000 726 4103 
Q 622 4206 622 4353 
z
M 1356 331 
L 1900 331 
L 1900 0 
L 231 0 
L 231 331 
L 781 331 
L 781 2988 
L 231 2988 
L 231 3322 
L 1356 3322 
L 1356 331 
z
" transform="scale(0.015625)"/>
       <path id="DejaVuSerif-73" d="M 359 184 
L 359 959 
L 691 959 
Q 703 588 923 403 
Q 1144 219 1575 219 
Q 1963 219 2166 364 
Q 2369 509 2369 788 
Q 2369 1006 2220 1140 
Q 2072 1275 1594 1428 
L 1178 1569 
Q 750 1706 558 1912 
Q 366 2119 366 2438 
Q 366 2894 700 3153 
Q 1034 3413 1625 3413 
Q 1888 3413 2178 3344 
Q 2469 3275 2778 3144 
L 2778 2419 
L 2447 2419 
Q 2434 2741 2221 2922 
Q 2009 3103 1644 3103 
Q 1281 3103 1095 2975 
Q 909 2847 909 2591 
Q 909 2381 1050 2254 
Q 1191 2128 1613 1997 
L 2069 1856 
Q 2541 1709 2748 1489 
Q 2956 1269 2956 922 
Q 2956 450 2595 179 
Q 2234 -91 1600 -91 
Q 1278 -91 972 -22 
Q 666 47 359 184 
z
" transform="scale(0.015625)"/>
       <path id="DejaVuSerif-6f" d="M 1925 219 
Q 2388 219 2623 584 
Q 2859 950 2859 1663 
Q 2859 2375 2623 2739 
Q 2388 3103 1925 3103 
Q 1463 3103 1227 2739 
Q 991 2375 991 1663 
Q 991 950 1228 584 
Q 1466 219 1925 219 
z
M 1925 -91 
Q 1200 -91 759 389 
Q 319 869 319 1663 
Q 319 2456 758 2934 
Q 1197 3413 1925 3413 
Q 2653 3413 3092 2934 
Q 3531 2456 3531 1663 
Q 3531 869 3092 389 
Q 2653 -91 1925 -91 
z
" transform="scale(0.015625)"/>
       <path id="DejaVuSerif-6e" d="M 263 0 
L 263 331 
L 781 331 
L 781 2988 
L 231 2988 
L 231 3322 
L 1356 3322 
L 1356 2731 
Q 1516 3069 1770 3241 
Q 2025 3413 2363 3413 
Q 2913 3413 3172 3097 
Q 3431 2781 3431 2113 
L 3431 331 
L 3944 331 
L 3944 0 
L 2356 0 
L 2356 331 
L 2853 331 
L 2853 1931 
Q 2853 2541 2703 2767 
Q 2553 2994 2175 2994 
Q 1775 2994 1565 2701 
Q 1356 2409 1356 1850 
L 1356 331 
L 1856 331 
L 1856 0 
L 263 0 
z
" transform="scale(0.015625)"/>
      </defs>
      <use xlink:href="#DejaVuSerif-50"/>
      <use xlink:href="#DejaVuSerif-72" x="67.285156"/>
      <use xlink:href="#DejaVuSerif-65" x="115.087891"/>
      <use xlink:href="#DejaVuSerif-63" x="174.267578"/>
      <use xlink:href="#DejaVuSerif-69" x="230.273438"/>
      <use xlink:href="#DejaVuSerif-73" x="262.255859"/>
      <use xlink:href="#DejaVuSerif-69" x="313.574219"/>
      <use xlink:href="#DejaVuSerif-6f" x="345.556641"/>
      <use xlink:href="#DejaVuSerif-6e" x="405.761719"/>
     </g>
    </g>
   </g>
   <g id="matplotlib.axis_2">
    <g id="ytick_1">
     <g id="line2d_7">
      <defs>
       <path id="m8765e545a9" d="M 0 0 
L -3.5 0 
" style="stroke: #000000; stroke-width: 0.8"/>
      </defs>
      <g>
       <use xlink:href="#m8765e545a9" x="33.950313" y="170.838437" style="stroke: #000000; stroke-width: 0.8"/>
      </g>
     </g>
     <g id="text_8">
      <!-- $\mathdefault{0.0}$ -->
      <g transform="translate(14.150313 173.877813) scale(0.08 -0.08)">
       <use xlink:href="#DejaVuSerif-30" transform="translate(0 0.78125)"/>
       <use xlink:href="#DejaVuSerif-2e" transform="translate(63.623047 0.78125)"/>
       <use xlink:href="#DejaVuSerif-30" transform="translate(95.410156 0.78125)"/>
      </g>
     </g>
    </g>
    <g id="ytick_2">
     <g id="line2d_8">
      <g>
       <use xlink:href="#m8765e545a9" x="33.950313" y="140.878437" style="stroke: #000000; stroke-width: 0.8"/>
      </g>
     </g>
     <g id="text_9">
      <!-- $\mathdefault{0.2}$ -->
      <g transform="translate(14.390313 143.917812) scale(0.08 -0.08)">
       <use xlink:href="#DejaVuSerif-30" transform="translate(0 0.78125)"/>
       <use xlink:href="#DejaVuSerif-2e" transform="translate(63.623047 0.78125)"/>
       <use xlink:href="#DejaVuSerif-32" transform="translate(92.785156 0.78125)"/>
      </g>
     </g>
    </g>
    <g id="ytick_3">
     <g id="line2d_9">
      <g>
       <use xlink:href="#m8765e545a9" x="33.950313" y="110.918437" style="stroke: #000000; stroke-width: 0.8"/>
      </g>
     </g>
     <g id="text_10">
      <!-- $\mathdefault{0.4}$ -->
      <g transform="translate(14.150313 113.957812) scale(0.08 -0.08)">
       <use xlink:href="#DejaVuSerif-30" transform="translate(0 0.78125)"/>
       <use xlink:href="#DejaVuSerif-2e" transform="translate(63.623047 0.78125)"/>
       <use xlink:href="#DejaVuSerif-34" transform="translate(95.410156 0.78125)"/>
      </g>
     </g>
    </g>
    <g id="ytick_4">
     <g id="line2d_10">
      <g>
       <use xlink:href="#m8765e545a9" x="33.950313" y="80.958437" style="stroke: #000000; stroke-width: 0.8"/>
      </g>
     </g>
     <g id="text_11">
      <!-- $\mathdefault{0.6}$ -->
      <g transform="translate(14.150313 83.997812) scale(0.08 -0.08)">
       <use xlink:href="#DejaVuSerif-30" transform="translate(0 0.78125)"/>
       <use xlink:href="#DejaVuSerif-2e" transform="translate(63.623047 0.78125)"/>
       <use xlink:href="#DejaVuSerif-36" transform="translate(95.410156 0.78125)"/>
      </g>
     </g>
    </g>
    <g id="ytick_5">
     <g id="line2d_11">
      <g>
       <use xlink:href="#m8765e545a9" x="33.950313" y="50.998437" style="stroke: #000000; stroke-width: 0.8"/>
      </g>
     </g>
     <g id="text_12">
      <!-- $\mathdefault{0.8}$ -->
      <g transform="translate(14.470313 54.037812) scale(0.08 -0.08)">
       <use xlink:href="#DejaVuSerif-30" transform="translate(0 0.78125)"/>
       <use xlink:href="#DejaVuSerif-2e" transform="translate(63.623047 0.78125)"/>
       <use xlink:href="#DejaVuSerif-38" transform="translate(91.785156 0.78125)"/>
      </g>
     </g>
    </g>
    <g id="ytick_6">
     <g id="line2d_12">
      <g>
       <use xlink:href="#m8765e545a9" x="33.950313" y="21.038437" style="stroke: #000000; stroke-width: 0.8"/>
      </g>
     </g>
     <g id="text_13">
      <!-- $\mathdefault{1.0}$ -->
      <g transform="translate(14.150313 24.077812) scale(0.08 -0.08)">
       <use xlink:href="#DejaVuSerif-31" transform="translate(0 0.78125)"/>
       <use xlink:href="#DejaVuSerif-2e" transform="translate(63.623047 0.78125)"/>
       <use xlink:href="#DejaVuSerif-30" transform="translate(95.410156 0.78125)"/>
      </g>
     </g>
    </g>
    <g id="text_14">
     <!-- Recall -->
     <g transform="translate(8.278594 110.071953) rotate(-90) scale(0.09 -0.09)">
      <defs>
       <path id="DejaVuSerif-52" d="M 3066 2316 
Q 3284 2256 3442 2114 
Q 3600 1972 3725 1716 
L 4403 331 
L 4972 331 
L 4972 0 
L 3872 0 
L 3144 1484 
Q 2934 1916 2759 2042 
Q 2584 2169 2278 2169 
L 1581 2169 
L 1581 331 
L 2241 331 
L 2241 0 
L 353 0 
L 353 331 
L 947 331 
L 947 4331 
L 353 4331 
L 353 4666 
L 2719 4666 
Q 3400 4666 3770 4341 
Q 4141 4016 4141 3419 
Q 4141 2938 3870 2661 
Q 3600 2384 3066 2316 
z
M 1581 2503 
L 2503 2503 
Q 2975 2503 3200 2726 
Q 3425 2950 3425 3419 
Q 3425 3888 3200 4109 
Q 2975 4331 2503 4331 
L 1581 4331 
L 1581 2503 
z
" transform="scale(0.015625)"/>
       <path id="DejaVuSerif-61" d="M 2547 1044 
L 2547 1747 
L 1806 1747 
Q 1378 1747 1168 1562 
Q 959 1378 959 997 
Q 959 650 1171 447 
Q 1384 244 1747 244 
Q 2106 244 2326 466 
Q 2547 688 2547 1044 
z
M 3122 2075 
L 3122 331 
L 3634 331 
L 3634 0 
L 2547 0 
L 2547 359 
Q 2356 128 2106 18 
Q 1856 -91 1522 -91 
Q 969 -91 644 203 
Q 319 497 319 997 
Q 319 1513 691 1797 
Q 1063 2081 1741 2081 
L 2547 2081 
L 2547 2309 
Q 2547 2688 2317 2895 
Q 2088 3103 1672 3103 
Q 1328 3103 1125 2947 
Q 922 2791 872 2484 
L 575 2484 
L 575 3156 
Q 875 3284 1158 3348 
Q 1441 3413 1709 3413 
Q 2400 3413 2761 3070 
Q 3122 2728 3122 2075 
z
" transform="scale(0.015625)"/>
       <path id="DejaVuSerif-6c" d="M 1313 331 
L 1856 331 
L 1856 0 
L 184 0 
L 184 331 
L 738 331 
L 738 4531 
L 184 4531 
L 184 4863 
L 1313 4863 
L 1313 331 
z
" transform="scale(0.015625)"/>
      </defs>
      <use xlink:href="#DejaVuSerif-52"/>
      <use xlink:href="#DejaVuSerif-65" x="75.292969"/>
      <use xlink:href="#DejaVuSerif-63" x="134.472656"/>
      <use xlink:href="#DejaVuSerif-61" x="190.478516"/>
      <use xlink:href="#DejaVuSerif-6c" x="250.097656"/>
      <use xlink:href="#DejaVuSerif-6c" x="282.080078"/>
     </g>
    </g>
   </g>
   <g id="line2d_13">
    <path d="M 90.946536 -1 
L 92.280843 10.087541 
L 93.630393 19.517625 
L 95.129892 28.371305 
L 96.629392 35.8893 
L 98.128891 42.352666 
L 99.778341 48.490158 
L 101.42779 53.807187 
L 103.227189 58.85203 
L 105.026589 63.254801 
L 106.975938 67.43291 
L 108.925287 71.104749 
L 111.024587 74.591937 
L 113.273836 77.883364 
L 115.523085 80.792913 
L 117.922284 83.546034 
L 120.471434 86.140152 
L 123.170533 88.576324 
L 126.019582 90.858264 
L 129.168531 93.091809 
L 132.46743 95.160929 
L 136.066228 97.155664 
L 139.964927 99.060328 
L 144.163526 100.86513 
L 148.811974 102.617986 
L 153.910272 104.297627 
L 159.458421 105.890186 
L 165.606369 107.422623 
L 172.504066 108.907699 
L 180.151514 110.322589 
L 183.750313 110.918437 
L 183.750313 110.918437 
" clip-path="url(#pbcfec862e3)" style="fill: none; stroke: #0072b2; stroke-width: 1.2; stroke-linecap: round"/>
   </g>
   <g id="line2d_14">
    <path d="M 104.337014 -1 
L 105.926288 7.790818 
L 107.575738 15.665864 
L 109.225187 22.515755 
L 111.024587 29.038806 
L 112.823986 34.7507 
L 114.773336 40.187628 
L 116.722685 44.979077 
L 118.821984 49.541156 
L 120.921283 53.586076 
L 123.170533 57.440219 
L 125.569732 61.092874 
L 127.968931 64.347961 
L 130.51808 67.439509 
L 133.217179 70.364679 
L 136.066228 73.12407 
L 139.065227 75.720865 
L 142.214176 78.160117 
L 145.663025 80.546366 
L 149.261824 82.767948 
L 153.160523 84.914195 
L 157.359121 86.970818 
L 161.85762 88.928566 
L 166.805968 90.83675 
L 172.204166 92.674544 
L 178.052214 94.427716 
L 183.750313 95.938438 
L 183.750313 95.938438 
" clip-path="url(#pbcfec862e3)" style="fill: none; stroke: #e69f00; stroke-width: 1.2; stroke-linecap: round"/>
   </g>
   <g id="line2d_15">
    <path d="M 125.951049 -1 
L 127.818981 5.158579 
L 129.91828 11.317639 
L 132.01758 16.798815 
L 134.266829 22.039328 
L 136.516078 26.727045 
L 138.915277 31.211274 
L 141.314477 35.241977 
L 143.863626 39.100705 
L 146.562725 42.779473 
L 149.411774 46.274723 
L 152.410773 49.586388 
L 155.559722 52.717096 
L 158.858621 55.671479 
L 162.30747 58.455615 
L 165.906268 61.076572 
L 169.804967 63.635594 
L 173.853616 66.028989 
L 178.202164 68.343701 
L 182.850613 70.567861 
L 183.750313 70.971771 
L 183.750313 70.971771 
" clip-path="url(#pbcfec862e3)" style="fill: none; stroke: #009e73; stroke-width: 1.2; stroke-linecap: round"/>
   </g>
   <g id="line2d_16">
    <path d="M 166.722292 -1 
L 169.505067 3.447585 
L 172.354116 7.597115 
L 175.353115 11.58094 
L 178.502064 15.394735 
L 181.800963 19.036999 
L 183.750313 21.038437 
L 183.750313 21.038437 
" clip-path="url(#pbcfec862e3)" style="fill: none; stroke: #d55e00; stroke-width: 1.2; stroke-linecap: round"/>
   </g>
   <g id="line2d_17">
    <path d="M 63.161889 -1 
L 63.790353 17.965617 
L 64.540102 35.019771 
L 65.439802 50.309702 
L 66.339502 61.892983 
L 67.389151 72.297435 
L 68.438801 80.407991 
L 69.488451 86.907941 
L 70.68805 92.916994 
L 71.88765 97.814545 
L 73.237199 102.343499 
L 74.586749 106.092345 
L 76.086248 109.566531 
L 77.585748 112.482614 
L 79.235197 115.193173 
L 80.884647 117.496686 
L 82.684046 119.644957 
L 84.633396 121.632995 
L 86.732695 123.462337 
L 88.981944 125.138853 
L 91.531093 126.759357 
L 94.380142 128.294815 
L 97.529091 129.728276 
L 100.97794 131.051985 
L 104.876639 132.309128 
L 109.375137 133.518279 
L 114.473436 134.651933 
L 120.321484 135.720489 
L 127.219181 136.745646 
L 135.166529 137.696845 
L 144.613376 138.598018 
L 155.859622 139.44184 
L 169.505067 140.235228 
L 183.750313 140.878437 
L 183.750313 140.878437 
" clip-path="url(#pbcfec862e3)" style="fill: none; stroke: #cc79a7; stroke-width: 1.2; stroke-linecap: round"/>
   </g>
   <g id="line2d_18">
    <path d="M 70.236898 -1 
L 70.98795 14.056234 
L 71.88765 28.35949 
L 72.937299 41.443089 
L 73.986949 51.800937 
L 75.186549 61.277267 
L 76.386148 68.931226 
L 77.585748 75.242385 
L 78.935297 81.137839 
L 80.284847 86.061514 
L 81.784347 90.66025 
L 83.283846 94.547106 
L 84.933295 98.182232 
L 86.582745 101.288437 
L 88.382144 104.199467 
L 90.331494 106.905634 
L 92.280843 109.239917 
L 94.380142 111.419737 
L 96.629392 113.444854 
L 99.028591 115.319052 
L 101.72769 117.143275 
L 104.726689 118.887225 
L 107.875638 120.462312 
L 111.474437 122.007038 
L 115.373135 123.436689 
L 119.721684 124.795665 
L 124.670032 126.105466 
L 130.21818 127.341558 
L 136.516078 128.515761 
L 143.863626 129.651866 
L 152.260823 130.718886 
L 162.00757 131.728318 
L 173.403766 132.680673 
L 183.750313 133.388438 
L 183.750313 133.388438 
" clip-path="url(#pbcfec862e3)" style="fill: none; stroke: #f0e442; stroke-width: 1.2; stroke-linecap: round"/>
   </g>
   <g id="line2d_19">
    <path d="M 81.836985 -1 
L 82.983946 12.312224 
L 84.183546 23.674215 
L 85.383145 33.086695 
L 86.732695 41.91521 
L 88.082244 49.315291 
L 89.581744 56.249159 
L 91.081243 62.126437 
L 92.580743 67.171535 
L 94.230192 71.955679 
L 95.879642 76.095099 
L 97.679041 80.018181 
L 99.478441 83.438437 
L 101.42779 86.681134 
L 103.527089 89.733187 
L 105.776339 92.589583 
L 108.025588 95.095142 
L 110.424787 97.449389 
L 112.973936 99.653045 
L 115.822985 101.816665 
L 118.821984 103.813299 
L 122.120883 105.736885 
L 125.719682 107.568872 
L 129.618381 109.297935 
L 133.816979 110.918437 
L 138.465428 112.475889 
L 143.713676 113.993647 
L 149.561724 115.444768 
L 156.009572 116.812208 
L 163.357119 118.136685 
L 171.604367 119.391973 
L 181.051213 120.597822 
L 183.750313 120.905104 
L 183.750313 120.905104 
" clip-path="url(#pbcfec862e3)" style="fill: none; stroke: #56b4e9; stroke-width: 1.2; stroke-linecap: round"/>
   </g>
   <g id="patch_3">
    <path d="M 33.950313 170.838437 
L 33.950313 21.038437 
" style="fill: none; stroke: #000000; stroke-width: 0.8; stroke-linejoin: miter; stroke-linecap: square"/>
   </g>
   <g id="patch_4">
    <path d="M 183.750313 170.838437 
L 183.750313 21.038437 
" style="fill: none; stroke: #000000; stroke-width: 0.8; stroke-linejoin: miter; stroke-linecap: square"/>
   </g>
   <g id="patch_5">
    <path d="M 33.950313 170.838437 
L 183.750313 170.838437 
" style="fill: none; stroke: #000000; stroke-width: 0.8; stroke-linejoin: miter; stroke-linecap: square"/>
   </g>
   <g id="patch_6">
    <path d="M 33.950313 21.038437 
L 183.750313 21.038437 
" style="fill: none; stroke: #000000; stroke-width: 0.8; stroke-linejoin: miter; stroke-linecap: square"/>
   </g>
   <g id="text_15">
    <!-- Precision, Recall, and F1 -->
    <g transform="translate(45.640156 9.038437) scale(0.1 -0.1)">
     <defs>
      <path id="DejaVuSerif-2c" d="M 231 -622 
Q 525 -406 662 -114 
Q 800 178 800 594 
L 800 709 
L 1416 709 
Q 1391 175 1164 -208 
Q 938 -591 481 -872 
L 231 -622 
z
" transform="scale(0.015625)"/>
      <path id="DejaVuSerif-20" transform="scale(0.015625)"/>
      <path id="DejaVuSerif-64" d="M 3359 331 
L 3909 331 
L 3909 0 
L 2784 0 
L 2784 519 
Q 2616 206 2355 57 
Q 2094 -91 1709 -91 
Q 1097 -91 708 395 
Q 319 881 319 1663 
Q 319 2444 706 2928 
Q 1094 3413 1709 3413 
Q 2094 3413 2355 3264 
Q 2616 3116 2784 2803 
L 2784 4531 
L 2241 4531 
L 2241 4863 
L 3359 4863 
L 3359 331 
z
M 2784 1497 
L 2784 1825 
Q 2784 2422 2554 2737 
Q 2325 3053 1888 3053 
Q 1444 3053 1217 2703 
Q 991 2353 991 1663 
Q 991 975 1217 622 
Q 1444 269 1888 269 
Q 2325 269 2554 583 
Q 2784 897 2784 1497 
z
" transform="scale(0.015625)"/>
      <path id="DejaVuSerif-46" d="M 353 0 
L 353 331 
L 947 331 
L 947 4331 
L 353 4331 
L 353 4666 
L 4172 4666 
L 4172 3628 
L 3788 3628 
L 3788 4281 
L 1581 4281 
L 1581 2719 
L 3175 2719 
L 3175 3303 
L 3559 3303 
L 3559 1753 
L 3175 1753 
L 3175 2338 
L 1581 2338 
L 1581 331 
L 2328 331 
L 2328 0 
L 353 0 
z
" transform="scale(0.015625)"/>
     </defs>
     <use xlink:href="#DejaVuSerif-50"/>
     <use xlink:href="#DejaVuSerif-72" x="67.285156"/>
     <use xlink:href="#DejaVuSerif-65" x="115.087891"/>
     <use xlink:href="#DejaVuSerif-63" x="174.267578"/>
     <use xlink:href="#DejaVuSerif-69" x="230.273438"/>
     <use xlink:href="#DejaVuSerif-73" x="262.255859"/>
     <use xlink:href="#DejaVuSerif-69" x="313.574219"/>
     <use xlink:href="#DejaVuSerif-6f" x="345.556641"/>
     <use xlink:href="#DejaVuSerif-6e" x="405.761719"/>
     <use xlink:href="#DejaVuSerif-2c" x="470.166016"/>
     <use xlink:href="#DejaVuSerif-20" x="501.953125"/>
     <use xlink:href="#DejaVuSerif-52" x="533.740234"/>
     <use xlink:href="#DejaVuSerif-65" x="609.033203"/>
     <use xlink:href="#DejaVuSerif-63" x="668.212891"/>
     <use xlink:href="#DejaVuSerif-61" x="724.21875"/>
     <use xlink:href="#DejaVuSerif-6c" x="783.837891"/>
     <use xlink:href="#DejaVuSerif-6c" x="815.820312"/>
     <use xlink:href="#DejaVuSerif-2c" x="847.802734"/>
     <use xlink:href="#DejaVuSerif-20" x="879.589844"/>
     <use xlink:href="#DejaVuSerif-61" x="911.376953"/>
     <use xlink:href="#DejaVuSerif-6e" x="970.996094"/>
     <use xlink:href="#DejaVuSerif-64" x="1035.400391"/>
     <use xlink:href="#DejaVuSerif-20" x="1099.414062"/>
     <use xlink:href="#DejaVuSerif-46" x="1131.201172"/>
     <use xlink:href="#DejaVuSerif-31" x="1200.585938"/>
    </g>
   </g>
  </g>
 </g>
 <defs>
  <clipPath id="pbcfec862e3">
   <rect x="33.950313" y="21.038437" width="149.8" height="149.8"/>
  </clipPath>
 </defs>
</svg>
