<?xml version="1.0" encoding="utf-8" standalone="no"?>
<!DOCTYPE svg PUBLIC "-//W3C//DTD SVG 1.1//EN"
  "http://www.w3.org/Graphics/SVG/1.1/DTD/svg11.dtd">
<svg xmlns:xlink="http://www.w3.org/1999/xlink" width="191.590313pt" height="199.73125pt" viewBox="0 0 191.590313 199.73125" xmlns="http://www.w3.org/2000/svg" version="1.1">
 <metadata>
  <rdf:RDF xmlns:dc="http://purl.org/dc/elements/1.1/" xmlns:cc="http://creativecommons.org/ns#" xmlns:rdf="http://www.w3.org/1999/02/22-rdf-syntax-ns#">
   <cc:Work>
    <dc:type rdf:resource="http://purl.org/dc/dcmitype/StillImage"/>
    <dc:date>2025-09-13T19:11:37.837403</dc:date>
    <dc:format>image/svg+xml</dc:format>
    <dc:creator>
     <cc:Agent>
      <dc:title>Matplotlib v3.7.2, https://matplotlib.org/</dc:title>
     </cc:Agent>
    </dc:creator>
   </cc:Work>
  </rdf:RDF>
 </metadata>
 <defs>
  <style type="text/css">*{stroke-linejoin: round; stroke-linecap: butt}</style>
 </defs>
 <g id="figure_1">
  <g id="patch_1">
   <path d="M 0 199.73125 
L 191.590313 199.73125 
L 191.590313 0 
L 0 0 
L 0 199.73125 
z
" style="fill: none"/>
  </g>
  <g id="axes_1">
   <g id="patch_2">
    <path d="M 33.950313 170.838437 
L 183.750313 170.838437 
L 183.750313 21.038437 
L 33.950313 21.038437 
L 33.950313 170.838437 
z
" style="fill: none"/>
   </g>
   <g id="PathCollection_1">
    <defs>
     <path id="m461eff9299" d="M 0 1.936492 
C 0.513564 1.936492 1.006162 1.732451 1.369306 1.369306 
C 1.732451 1.006162 1.936492 0.513564 1.936492 0 
C 1.936492 -0.513564 1.732451 -1.006162 1.369306 -1.369306 
C 1.006162 -1.732451 0.513564 -1.936492 0 -1.936492 
C -0.513564 -1.936492 -1.006162 -1.732451 -1.369306 -1.369306 
C -1.732451 -1.006162 -1.936492 -0.513564 -1.936492 0 
C -1.936492 0.513564 -1.732451 1.006162 -1.369306 1.369306 
C -1.006162 1.732451 -0.513564 1.936492 0 1.936492 
z
" style="stroke: #0072b2"/>
    </defs>
    <g>
     <use xlink:href="#m461eff9299" x="93.870313" y="21.038437" style="fill: #0072b2; stroke: #0072b2"/>
    </g>
   </g>
   <g id="PathCollection_2">
    <defs>
     <path id="m69dd6348aa" d="M 0 4.330127 
C 1.148363 4.330127 2.249847 3.873878 3.061862 3.061862 
C 3.873878 2.249847 4.330127 1.148363 4.330127 0 
C 4.330127 -1.148363 3.873878 -2.249847 3.061862 -3.061862 
C 2.249847 -3.873878 1.148363 -4.330127 0 -4.330127 
C -1.148363 -4.330127 -2.249847 -3.873878 -3.061862 -3.061862 
C -3.873878 -2.249847 -4.330127 -1.148363 -4.330127 0 
C -4.330127 1.148363 -3.873878 2.249847 -3.061862 3.061862 
C -2.249847 3.873878 -1.148363 4.330127 0 4.330127 
z
" style="stroke: #e69f00"/>
    </defs>
    <g>
     <use xlink:href="#m69dd6348aa" x="108.850313" y="21.038437" style="fill: #e69f00; stroke: #e69f00"/>
     <use xlink:href="#m69dd6348aa" x="108.850313" y="21.038437" style="fill: #e69f00; stroke: #e69f00"/>
     <use xlink:href="#m69dd6348aa" x="108.850313" y="21.038437" style="fill: #e69f00; stroke: #e69f00"/>
     <use xlink:href="#m69dd6348aa" x="183.750313" y="95.938437" style="fill: #e69f00; stroke: #e69f00"/>
     <use xlink:href="#m69dd6348aa" x="183.750313" y="95.938437" style="fill: #e69f00; stroke: #e69f00"/>
    </g>
   </g>
   <g id="PathCollection_3">
    <defs>
     <path id="ma15a51b5ce" d="M 0 3.354102 
C 0.889518 3.354102 1.742724 3.000693 2.371708 2.371708 
C 3.000693 1.742724 3.354102 0.889518 3.354102 0 
C 3.354102 -0.889518 3.000693 -1.742724 2.371708 -2.371708 
C 1.742724 -3.000693 0.889518 -3.354102 0 -3.354102 
C -0.889518 -3.354102 -1.742724 -3.000693 -2.371708 -2.371708 
C -3.000693 -1.742724 -3.354102 -0.889518 -3.354102 0 
C -3.354102 0.889518 -3.000693 1.742724 -2.371708 2.371708 
C -1.742724 3.000693 -0.889518 3.354102 0 3.354102 
z
" style="stroke: #009e73"/>
    </defs>
    <g>
     <use xlink:href="#ma15a51b5ce" x="133.816979" y="21.038437" style="fill: #009e73; stroke: #009e73"/>
     <use xlink:href="#ma15a51b5ce" x="133.816979" y="21.038437" style="fill: #009e73; stroke: #009e73"/>
     <use xlink:href="#ma15a51b5ce" x="133.816979" y="21.038437" style="fill: #009e73; stroke: #009e73"/>
    </g>
   </g>
   <g id="PathCollection_4">
    <defs>
     <path id="mdfb5e76adf" d="M 0 1.936492 
C 0.513564 1.936492 1.006162 1.732451 1.369306 1.369306 
C 1.732451 1.006162 1.936492 0.513564 1.936492 0 
C 1.936492 -0.513564 1.732451 -1.006162 1.369306 -1.369306 
C 1.006162 -1.732451 0.513564 -1.936492 0 -1.936492 
C -0.513564 -1.936492 -1.006162 -1.732451 -1.369306 -1.369306 
C -1.732451 -1.006162 -1.936492 -0.513564 -1.936492 0 
C -1.936492 0.513564 -1.732451 1.006162 -1.369306 1.369306 
C -1.006162 1.732451 -0.513564 1.936492 0 1.936492 
z
" style="stroke: #d55e00"/>
    </defs>
    <g>
     <use xlink:href="#mdfb5e76adf" x="183.750313" y="21.038437" style="fill: #d55e00; stroke: #d55e00"/>
    </g>
   </g>
   <g id="PathCollection_5">
    <defs>
     <path id="mff9e2fd636" d="M 0 2.738613 
C 0.726289 2.738613 1.422928 2.450055 1.936492 1.936492 
C 2.450055 1.422928 2.738613 0.726289 2.738613 0 
C 2.738613 -0.726289 2.450055 -1.422928 1.936492 -1.936492 
C 1.422928 -2.450055 0.726289 -2.738613 0 -2.738613 
C -0.726289 -2.738613 -1.422928 -2.450055 -1.936492 -1.936492 
C -2.450055 -1.422928 -2.738613 -0.726289 -2.738613 0 
C -2.738613 0.726289 -2.450055 1.422928 -1.936492 1.936492 
C -1.422928 2.450055 -0.726289 2.738613 0 2.738613 
z
" style="stroke: #cc79a7"/>
    </defs>
    <g>
     <use xlink:href="#mff9e2fd636" x="71.400313" y="95.938437" style="fill: #cc79a7; stroke: #cc79a7"/>
     <use xlink:href="#mff9e2fd636" x="71.400313" y="95.938437" style="fill: #cc79a7; stroke: #cc79a7"/>
    </g>
   </g>
   <g id="PathCollection_6">
    <defs>
     <path id="m7d86707e60" d="M 0 4.743416 
C 1.257969 4.743416 2.464584 4.24362 3.354102 3.354102 
C 4.24362 2.464584 4.743416 1.257969 4.743416 0 
C 4.743416 -1.257969 4.24362 -2.464584 3.354102 -3.354102 
C 2.464584 -4.24362 1.257969 -4.743416 0 -4.743416 
C -1.257969 -4.743416 -2.464584 -4.24362 -3.354102 -3.354102 
C -4.24362 -2.464584 -4.743416 -1.257969 -4.743416 0 
C -4.743416 1.257969 -4.24362 2.464584 -3.354102 3.354102 
C -2.464584 4.24362 -1.257969 4.743416 0 4.743416 
z
" style="stroke: #f0e442"/>
    </defs>
    <g>
     <use xlink:href="#m7d86707e60" x="83.883646" y="95.938437" style="fill: #f0e442; stroke: #f0e442"/>
     <use xlink:href="#m7d86707e60" x="83.883646" y="95.938437" style="fill: #f0e442; stroke: #f0e442"/>
     <use xlink:href="#m7d86707e60" x="83.883646" y="95.938437" style="fill: #f0e442; stroke: #f0e442"/>
     <use xlink:href="#m7d86707e60" x="83.883646" y="95.938437" style="fill: #f0e442; stroke: #f0e442"/>
     <use xlink:href="#m7d86707e60" x="83.883646" y="95.938437" style="fill: #f0e442; stroke: #f0e442"/>
     <use xlink:href="#m7d86707e60" x="83.883646" y="95.938437" style="fill: #f0e442; stroke: #f0e442"/>
    </g>
   </g>
   <g id="PathCollection_7">
    <defs>
     <path id="mabe7af8024" d="M 0 4.743416 
C 1.257969 4.743416 2.464584 4.24362 3.354102 3.354102 
C 4.24362 2.464584 4.743416 1.257969 4.743416 0 
C 4.743416 -1.257969 4.24362 -2.464584 3.354102 -3.354102 
C 2.464584 -4.24362 1.257969 -4.743416 0 -4.743416 
C -1.257969 -4.743416 -2.464584 -4.24362 -3.354102 -3.354102 
C -4.24362 -2.464584 -4.743416 -1.257969 -4.743416 0 
C -4.743416 1.257969 -4.24362 2.464584 -3.354102 3.354102 
C -2.464584 4.24362 -1.257969 4.743416 0 4.743416 
z
" style="stroke: #56b4e9"/>
    </defs>
    <g>
     <use xlink:href="#mabe7af8024" x="108.850313" y="95.938437" style="fill: #56b4e9; stroke: #56b4e9"/>
     <use xlink:href="#mabe7af8024" x="108.850313" y="95.938437" style="fill: #56b4e9; stroke: #56b4e9"/>
     <use xlink:href="#mabe7af8024" x="108.850313" y="95.938437" style="fill: #56b4e9; stroke: #56b4e9"/>
     <use xlink:href="#mabe7af8024" x="108.850313" y="95.938437" style="fill: #56b4e9; stroke: #56b4e9"/>
     <use xlink:href="#mabe7af8024" x="108.850313" y="95.938437" style="fill: #56b4e9; stroke: #56b4e9"/>
     <use xlink:href="#mabe7af8024" x="108.850313" y="95.938437" style="fill: #56b4e9; stroke: #56b4e9"/>
    </g>
   </g>
   <g id="PathCollection_8"/>
   <g id="PathCollection_9">
    <g>
     <use xlink:href="#m461eff9299" x="33.950313" y="170.838437" style="fill: #0072b2; stroke: #0072b2"/>
    </g>
   </g>
   <g id="matplotlib.axis_1">
    <g id="xtick_1">
     <g id="line2d_1">
      <defs>
       <path id="mbe6827a01b" d="M 0 0 
L 0 3.5 
" style="stroke: #000000; stroke-width: 0.8"/>
      </defs>
      <g>
       <use xlink:href="#mbe6827a01b" x="33.950313" y="170.838437" style="stroke: #000000; stroke-width: 0.8"/>
      </g>
     </g>
     <g id="text_1">
      <!-- $\mathdefault{0.0}$ -->
      <g transform="translate(27.550313 183.917187)">
       <text>
        <tspan style="font: 8px 'DejaVu Serif'" x="0 5.089844 7.632812" y="-0.0625">0.0</tspan>
       </text>
      </g>
     </g>
    </g>
    <g id="xtick_2">
     <g id="line2d_2">
      <g>
       <use xlink:href="#mbe6827a01b" x="63.910313" y="170.838437" style="stroke: #000000; stroke-width: 0.8"/>
      </g>
     </g>
     <g id="text_2">
      <!-- $\mathdefault{0.2}$ -->
      <g transform="translate(57.630313 183.917187)">
       <text>
        <tspan style="font: 8px 'DejaVu Serif'" x="0 5.089844 7.382812" y="-0.0625">0.2</tspan>
       </text>
      </g>
     </g>
    </g>
    <g id="xtick_3">
     <g id="line2d_3">
      <g>
       <use xlink:href="#mbe6827a01b" x="93.870313" y="170.838437" style="stroke: #000000; stroke-width: 0.8"/>
      </g>
     </g>
     <g id="text_3">
      <!-- $\mathdefault{0.4}$ -->
      <g transform="translate(87.470313 183.917187)">
       <text>
        <tspan style="font: 8px 'DejaVu Serif'" x="0 5.089844 7.632812" y="-0.0625">0.4</tspan>
       </text>
      </g>
     </g>
    </g>
    <g id="xtick_4">
     <g id="line2d_4">
      <g>
       <use xlink:href="#mbe6827a01b" x="123.830313" y="170.838437" style="stroke: #000000; stroke-width: 0.8"/>
      </g>
     </g>
     <g id="text_4">
      <!-- $\mathdefault{0.6}$ -->
      <g transform="translate(117.430313 183.917187)">
       <text>
        <tspan style="font: 8px 'DejaVu Serif'" x="0 5.089844 7.632812" y="-0.0625">0.6</tspan>
       </text>
      </g>
     </g>
    </g>
    <g id="xtick_5">
     <g id="line2d_5">
      <g>
       <use xlink:href="#mbe6827a01b" x="153.790313" y="170.838437" style="stroke: #000000; stroke-width: 0.8"/>
      </g>
     </g>
     <g id="text_5">
      <!-- $\mathdefault{0.8}$ -->
      <g transform="translate(147.550313 183.917187)">
       <text>
        <tspan style="font: 8px 'DejaVu Serif'" x="0 5.089844 7.382812" y="-0.0625">0.8</tspan>
       </text>
      </g>
     </g>
    </g>
    <g id="xtick_6">
     <g id="line2d_6">
      <g>
       <use xlink:href="#mbe6827a01b" x="183.750313" y="170.838437" style="stroke: #000000; stroke-width: 0.8"/>
      </g>
     </g>
     <g id="text_6">
      <!-- $\mathdefault{1.0}$ -->
      <g transform="translate(177.350313 183.917187)">
       <text>
        <tspan style="font: 8px 'DejaVu Serif'" x="0 5.089844 7.632812" y="-0.0625">1.0</tspan>
       </text>
      </g>
     </g>
    </g>
    <g id="text_7">
     <text style="font: 9px 'DejaVu Serif', 'Bitstream Vera Serif', 'Computer Modern Roman', 'New Century Schoolbook', 'Century Schoolbook L', 'Utopia', 'ITC Bookman', 'Bookman', 'Nimbus Roman No9 L', 'Times New Roman', 'Times', 'Palatino', 'Charter', serif; text-anchor: middle" x="108.850313" y="196.419531" transform="rotate(-0 108.850313 196.419531)">Precision</text>
    </g>
   </g>
   <g id="matplotlib.axis_2">
    <g id="ytick_1">
     <g id="line2d_7">
      <defs>
       <path id="mfb35279d69" d="M 0 0 
L -3.5 0 
" style="stroke: #000000; stroke-width: 0.8"/>
      </defs>
      <g>
       <use xlink:href="#mfb35279d69" x="33.950313" y="170.838437" style="stroke: #000000; stroke-width: 0.8"/>
      </g>
     </g>
     <g id="text_8">
      <!-- $\mathdefault{0.0}$ -->
      <g transform="translate(14.150313 173.877813)">
       <text>
        <tspan style="font: 8px 'DejaVu Serif'" x="0 5.089844 7.632812" y="-0.0625">0.0</tspan>
       </text>
      </g>
     </g>
    </g>
    <g id="ytick_2">
     <g id="line2d_8">
      <g>
       <use xlink:href="#mfb35279d69" x="33.950313" y="140.878437" style="stroke: #000000; stroke-width: 0.8"/>
      </g>
     </g>
     <g id="text_9">
      <!-- $\mathdefault{0.2}$ -->
      <g transform="translate(14.390313 143.917812)">
       <text>
        <tspan style="font: 8px 'DejaVu Serif'" x="0 5.089844 7.382812" y="-0.0625">0.2</tspan>
       </text>
      </g>
     </g>
    </g>
    <g id="ytick_3">
     <g id="line2d_9">
      <g>
       <use xlink:href="#mfb35279d69" x="33.950313" y="110.918437" style="stroke: #000000; stroke-width: 0.8"/>
      </g>
     </g>
     <g id="text_10">
      <!-- $\mathdefault{0.4}$ -->
      <g transform="translate(14.150313 113.957812)">
       <text>
        <tspan style="font: 8px 'DejaVu Serif'" x="0 5.089844 7.632812" y="-0.0625">0.4</tspan>
       </text>
      </g>
     </g>
    </g>
    <g id="ytick_4">
     <g id="line2d_10">
      <g>
       <use xlink:href="#mfb35279d69" x="33.950313" y="80.958437" style="stroke: #000000; stroke-width: 0.8"/>
      </g>
     </g>
     <g id="text_11">
      <!-- $\mathdefault{0.6}$ -->
      <g transform="translate(14.150313 83.997812)">
       <text>
        <tspan style="font: 8px 'DejaVu Serif'" x="0 5.089844 7.632812" y="-0.0625">0.6</tspan>
       </text>
      </g>
     </g>
    </g>
    <g id="ytick_5">
     <g id="line2d_11">
      <g>
       <use xlink:href="#mfb35279d69" x="33.950313" y="50.998437" style="stroke: #000000; stroke-width: 0.8"/>
      </g>
     </g>
     <g id="text_12">
      <!-- $\mathdefault{0.8}$ -->
      <g transform="translate(14.470313 54.037812)">
       <text>
        <tspan style="font: 8px 'DejaVu Serif'" x="0 5.089844 7.382812" y="-0.0625">0.8</tspan>
       </text>
      </g>
     </g>
    </g>
    <g id="ytick_6">
     <g id="line2d_12">
      <g>
       <use xlink:href="#mfb35279d69" x="33.950313" y="21.038437" style="stroke: #000000; stroke-width: 0.8"/>
      </g>
     </g>
     <g id="text_13">
      <!-- $\mathdefault{1.0}$ -->
      <g transform="translate(14.150313 24.077812)">
       <text>
        <tspan style="font: 8px 'DejaVu Serif'" x="0 5.089844 7.632812" y="-0.0625">1.0</tspan>
       </text>
      </g>
     </g>
    </g>
    <g id="text_14">
     <text style="font: 9px 'DejaVu Serif', 'Bitstream Vera Serif', 'Computer Modern Roman', 'New Century Schoolbook', 'Century Schoolbook L', 'Utopia', 'ITC Bookman', 'Bookman', 'Nimbus Roman No9 L', 'Times New Roman', 'Times', 'Palatino', 'Charter', serif; text-anchor: middle" x="8.278594" y="95.938437" transform="rotate(-90 8.278594 95.938437)">Recall</text>
    </g>
   </g>
   <g id="line2d_13">
    <path d="M 90.946536 -1 
L 92.280843 10.087541 
L 93.630393 19.517625 
L 95.129892 28.371305 
L 96.629392 35.8893 
L 98.128891 42.352666 
L 99.778341 48.490158 
L 101.42779 53.807187 
L 103.227189 58.85203 
L 105.026589 63.254801 
L 106.975938 67.43291 
L 108.925287 71.104749 
L 111.024587 74.591937 
L 113.273836 77.883364 
L 115.523085 80.792913 
L 117.922284 83.546034 
L 120.471434 86.140152 
L 123.170533 88.576324 
L 126.019582 90.858264 
L 129.168531 93.091809 
L 132.46743 95.160929 
L 136.066228 97.155664 
L 139.964927 99.060328 
L 144.163526 100.86513 
L 148.811974 102.617986 
L 153.910272 104.297627 
L 159.458421 105.890186 
L 165.606369 107.422623 
L 172.504066 108.907699 
L 180.151514 110.322589 
L 183.750313 110.918437 
L 183.750313 110.918437 
" clip-path="url(#pd09839f11a)" style="fill: none; stroke: #0072b2; stroke-width: 1.2; stroke-linecap: round"/>
   </g>
   <g id="line2d_14">
    <path d="M 104.337014 -1 
L 105.926288 7.790818 
L 107.575738 15.665864 
L 109.225187 22.515755 
L 111.024587 29.038806 
L 112.823986 34.7507 
L 114.773336 40.187628 
L 116.722685 44.979077 
L 118.821984 49.541156 
L 120.921283 53.586076 
L 123.170533 57.440219 
L 125.569732 61.092874 
L 127.968931 64.347961 
L 130.51808 67.439509 
L 133.217179 70.364679 
L 136.066228 73.12407 
L 139.065227 75.720865 
L 142.214176 78.160117 
L 145.663025 80.546366 
L 149.261824 82.767948 
L 153.160523 84.914195 
L 157.359121 86.970818 
L 161.85762 88.928566 
L 166.805968 90.83675 
L 172.204166 92.674544 
L 178.052214 94.427716 
L 183.750313 95.938438 
L 183.750313 95.938438 
" clip-path="url(#pd09839f11a)" style="fill: none; stroke: #e69f00; stroke-width: 1.2; stroke-linecap: round"/>
   </g>
   <g id="line2d_15">
    <path d="M 125.951049 -1 
L 127.818981 5.158579 
L 129.91828 11.317639 
L 132.01758 16.798815 
L 134.266829 22.039328 
L 136.516078 26.727045 
L 138.915277 31.211274 
L 141.314477 35.241977 
L 143.863626 39.100705 
L 146.562725 42.779473 
L 149.411774 46.274723 
L 152.410773 49.586388 
L 155.559722 52.717096 
L 158.858621 55.671479 
L 162.30747 58.455615 
L 165.906268 61.076572 
L 169.804967 63.635594 
L 173.853616 66.028989 
L 178.202164 68.343701 
L 182.850613 70.567861 
L 183.750313 70.971771 
L 183.750313 70.971771 
" clip-path="url(#pd09839f11a)" style="fill: none; stroke: #009e73; stroke-width: 1.2; stroke-linecap: round"/>
   </g>
   <g id="line2d_16">
    <path d="M 166.722292 -1 
L 169.505067 3.447585 
L 172.354116 7.597115 
L 175.353115 11.58094 
L 178.502064 15.394735 
L 181.800963 19.036999 
L 183.750313 21.038437 
L 183.750313 21.038437 
" clip-path="url(#pd09839f11a)" style="fill: none; stroke: #d55e00; stroke-width: 1.2; stroke-linecap: round"/>
   </g>
   <g id="line2d_17">
    <path d="M 63.161889 -1 
L 63.790353 17.965617 
L 64.540102 35.019771 
L 65.439802 50.309702 
L 66.339502 61.892983 
L 67.389151 72.297435 
L 68.438801 80.407991 
L 69.488451 86.907941 
L 70.68805 92.916994 
L 71.88765 97.814545 
L 73.237199 102.343499 
L 74.586749 106.092345 
L 76.086248 109.566531 
L 77.585748 112.482614 
L 79.235197 115.193173 
L 80.884647 117.496686 
L 82.684046 119.644957 
L 84.633396 121.632995 
L 86.732695 123.462337 
L 88.981944 125.138853 
L 91.531093 126.759357 
L 94.380142 128.294815 
L 97.529091 129.728276 
L 100.97794 131.051985 
L 104.876639 132.309128 
L 109.375137 133.518279 
L 114.473436 134.651933 
L 120.321484 135.720489 
L 127.219181 136.745646 
L 135.166529 137.696845 
L 144.613376 138.598018 
L 155.859622 139.44184 
L 169.505067 140.235228 
L 183.750313 140.878437 
L 183.750313 140.878437 
" clip-path="url(#pd09839f11a)" style="fill: none; stroke: #cc79a7; stroke-width: 1.2; stroke-linecap: round"/>
   </g>
   <g id="line2d_18">
    <path d="M 70.236898 -1 
L 70.98795 14.056234 
L 71.88765 28.35949 
L 72.937299 41.443089 
L 73.986949 51.800937 
L 75.186549 61.277267 
L 76.386148 68.931226 
L 77.585748 75.242385 
L 78.935297 81.137839 
L 80.284847 86.061514 
L 81.784347 90.66025 
L 83.283846 94.547106 
L 84.933295 98.182232 
L 86.582745 101.288437 
L 88.382144 104.199467 
L 90.331494 106.905634 
L 92.280843 109.239917 
L 94.380142 111.419737 
L 96.629392 113.444854 
L 99.028591 115.319052 
L 101.72769 117.143275 
L 104.726689 118.887225 
L 107.875638 120.462312 
L 111.474437 122.007038 
L 115.373135 123.436689 
L 119.721684 124.795665 
L 124.670032 126.105466 
L 130.21818 127.341558 
L 136.516078 128.515761 
L 143.863626 129.651866 
L 152.260823 130.718886 
L 162.00757 131.728318 
L 173.403766 132.680673 
L 183.750313 133.388438 
L 183.750313 133.388438 
" clip-path="url(#pd09839f11a)" style="fill: none; stroke: #f0e442; stroke-width: 1.2; stroke-linecap: round"/>
   </g>
   <g id="line2d_19">
    <path d="M 81.836985 -1 
L 82.983946 12.312224 
L 84.183546 23.674215 
L 85.383145 33.086695 
L 86.732695 41.91521 
L 88.082244 49.315291 
L 89.581744 56.249159 
L 91.081243 62.126437 
L 92.580743 67.171535 
L 94.230192 71.955679 
L 95.879642 76.095099 
L 97.679041 80.018181 
L 99.478441 83.438437 
L 101.42779 86.681134 
L 103.527089 89.733187 
L 105.776339 92.589583 
L 108.025588 95.095142 
L 110.424787 97.449389 
L 112.973936 99.653045 
L 115.822985 101.816665 
L 118.821984 103.813299 
L 122.120883 105.736885 
L 125.719682 107.568872 
L 129.618381 109.297935 
L 133.816979 110.918437 
L 138.465428 112.475889 
L 143.713676 113.993647 
L 149.561724 115.444768 
L 156.009572 116.812208 
L 163.357119 118.136685 
L 171.604367 119.391973 
L 181.051213 120.597822 
L 183.750313 120.905104 
L 183.750313 120.905104 
" clip-path="url(#pd09839f11a)" style="fill: none; stroke: #56b4e9; stroke-width: 1.2; stroke-linecap: round"/>
   </g>
   <g id="patch_3">
    <path d="M 33.950313 170.838437 
L 33.950313 21.038437 
" style="fill: none; stroke: #000000; stroke-width: 0.8; stroke-linejoin: miter; stroke-linecap: square"/>
   </g>
   <g id="patch_4">
    <path d="M 183.750313 170.838437 
L 183.750313 21.038437 
" style="fill: none; stroke: #000000; stroke-width: 0.8; stroke-linejoin: miter; stroke-linecap: square"/>
   </g>
   <g id="patch_5">
    <path d="M 33.950313 170.838437 
L 183.750313 170.838437 
" style="fill: none; stroke: #000000; stroke-width: 0.8; stroke-linejoin: miter; stroke-linecap: square"/>
   </g>
   <g id="patch_6">
    <path d="M 33.950313 21.038437 
L 183.750313 21.038437 
" style="fill: none; stroke: #000000; stroke-width: 0.8; stroke-linejoin: miter; stroke-linecap: square"/>
   </g>
   <g id="text_15">
    <text style="font: 10px 'DejaVu Serif', 'Bitstream Vera Serif', 'Computer Modern Roman', 'New Century Schoolbook', 'Century Schoolbook L', 'Utopia', 'ITC Bookman', 'Bookman', 'Nimbus Roman No9 L', 'Times New Roman', 'Times', 'Palatino', 'Charter', serif; text-anchor: middle" x="108.850313" y="9.038437" transform="rotate(-0 108.850313 9.038437)">Precision, Recall, and F1</text>
   </g>
  </g>
 </g>
 <defs>
  <clipPath id="pd09839f11a">
   <rect x="33.950313" y="21.038437" width="149.8" height="149.8"/>
  </clipPath>
 </defs>
</svg>
